<?xml version="1.0" encoding="UTF-8"?>
<svg width="40px" height="40px" viewBox="0 0 40 40" version="1.1" xmlns="http://www.w3.org/2000/svg" xmlns:xlink="http://www.w3.org/1999/xlink">
    <!-- Generator: Sketch 48.2 (47327) - http://www.bohemiancoding.com/sketch -->
    <title>Icon/codepen</title>
    <desc>Created with Sketch.</desc>
    <defs>
        <path d="M32.3660998,23.7679959 C32.3660998,23.8148363 32.3628024,23.8610004 32.3566303,23.9071645 C32.3543474,23.9221298 32.3507118,23.9377715 32.3481753,23.9527368 C32.3426796,23.9826673 32.3374375,24.0125979 32.3295744,24.0418521 C32.3250933,24.0594384 32.3185829,24.0762638 32.3130027,24.0932582 C32.3045477,24.119215 32.2961773,24.1453408 32.2857777,24.1713821 C32.278591,24.1888838 32.2697133,24.2057938 32.2620193,24.2227037 C32.2506051,24.2468003 32.2388527,24.270136 32.2259166,24.2936408 C32.2163625,24.3098743 32.2057092,24.3261924 32.1955633,24.3424259 C32.1812744,24.3645779 32.1667318,24.3860535 32.150752,24.4068527 C32.1389996,24.4230863 32.1269935,24.4380516 32.1140574,24.4530168 C32.0974012,24.4724632 32.0798148,24.4919942 32.0612985,24.5101724 C32.0472632,24.5245458 32.0335662,24.5388347 32.0190237,24.5518553 C31.9998309,24.5694417 31.9793699,24.5863516 31.9585707,24.6025851 C31.9428445,24.6150139 31.9272873,24.6273581 31.9106311,24.639026 C31.9045435,24.6429998 31.8990478,24.6481573 31.8927911,24.6520466 L20.5896067,32.1877847 C20.411038,32.3068306 20.2057515,32.3666071 19.9998732,32.3666071 C19.7946713,32.3666071 19.5890466,32.3068306 19.4104778,32.1877847 L8.10695526,24.6520466 C8.10103679,24.6481573 8.09554106,24.6429998 8.08970714,24.639026 C8.07305087,24.6273581 8.05715554,24.6150139 8.04151386,24.6025851 C8.02071466,24.5863516 8.0005073,24.5694417 7.98131454,24.5518553 C7.96668745,24.5388347 7.95273677,24.5245458 7.93870153,24.5101724 C7.92018516,24.4919942 7.90302159,24.4724632 7.88568892,24.4530168 C7.87334468,24.4380516 7.86100043,24.4230863 7.84933259,24.4068527 C7.83369091,24.3860535 7.81872563,24.3645779 7.80469039,24.3424259 C7.79395259,24.3261924 7.78389118,24.3098743 7.77416798,24.2936408 C7.76114734,24.270136 7.74947949,24.2468003 7.73806529,24.2227037 C7.72994853,24.2057938 7.72174722,24.1888838 7.71430685,24.1713821 C7.70390725,24.1453408 7.69511409,24.119215 7.68699733,24.0932582 C7.6811634,24.0762638 7.67532948,24.0594384 7.6704256,24.0418521 C7.66256249,24.0125979 7.65740496,23.9826673 7.65182469,23.9527368 C7.6492882,23.9377715 7.64539892,23.9221298 7.64336972,23.9071645 C7.6371976,23.8610004 7.63364652,23.8148363 7.63364652,23.7679959 L7.63364652,16.2322578 C7.63364652,16.1854173 7.6371976,16.1392532 7.64336972,16.093681 C7.64539892,16.0781238 7.6492882,16.0631586 7.65182469,16.0475169 C7.65740496,16.0175863 7.66256249,15.9876558 7.6704256,15.9584016 C7.67532948,15.9408153 7.6811634,15.9239053 7.68699733,15.9069954 C7.69511409,15.8809541 7.70390725,15.8549974 7.71430685,15.829548 C7.72174722,15.8120462 7.72994853,15.7944599 7.73806529,15.77755 C7.74947949,15.7534533 7.76114734,15.7300331 7.77416798,15.7072892 C7.78389118,15.6903793 7.79395259,15.6741458 7.80469039,15.6578277 C7.81872563,15.6357603 7.83369091,15.6142847 7.84933259,15.5934009 C7.86100043,15.5778438 7.87334468,15.5622021 7.88568892,15.5473214 C7.90302159,15.5277904 7.92018516,15.5082594 7.93870153,15.4899967 C7.95273677,15.4757078 7.96668745,15.461419 7.98131454,15.4483983 C8.0005073,15.430812 8.02071466,15.4139021 8.04151386,15.397584 C8.05715554,15.3852398 8.07305087,15.3728955 8.08970714,15.3612277 C8.09554106,15.3572538 8.10103679,15.3520963 8.10695526,15.348207 L19.4104778,7.81246895 C19.7676154,7.57437724 20.2323846,7.57437724 20.5896067,7.81246895 L31.8927911,15.348207 C31.8990478,15.3520963 31.9045435,15.3572538 31.9106311,15.3612277 C31.9272873,15.3728955 31.9428445,15.3852398 31.9585707,15.397584 C31.9793699,15.4139021 31.9998309,15.430812 32.0190237,15.4483983 C32.0335662,15.461419 32.0472632,15.4757078 32.0612985,15.4899967 C32.0798148,15.5082594 32.0974012,15.5277904 32.1140574,15.5473214 C32.1269935,15.5622021 32.1389996,15.5778438 32.150752,15.5934009 C32.1667318,15.6142847 32.1812744,15.6357603 32.1955633,15.6578277 C32.2057092,15.6741458 32.2163625,15.6903793 32.2259166,15.7072892 C32.2388527,15.7300331 32.2506051,15.7534533 32.2620193,15.77755 C32.2697133,15.7944599 32.278591,15.8120462 32.2857777,15.829548 C32.2961773,15.8549974 32.3045477,15.8809541 32.3130027,15.9069954 C32.3185829,15.9239053 32.3250933,15.9408153 32.3295744,15.9584016 C32.3374375,15.9876558 32.3426796,16.0175863 32.3481753,16.0475169 C32.3507118,16.0631586 32.3543474,16.0781238 32.3566303,16.093681 C32.3628024,16.1392532 32.3660998,16.1854173 32.3660998,16.2322578 L32.3660998,23.7679959 Z M19.9998732,0 C31.0458576,0 40,8.95422695 40,20.0001268 C40,31.0461112 31.0458576,39.9999155 19.9998732,39.9999155 C8.95456515,39.9999155 0,31.0461112 0,20.0001268 C0,8.95422695 8.95456515,0 19.9998732,0 Z M9.75923229,18.2215749 L9.75923229,21.7786618 L12.4183177,20.0001606 L9.75923229,18.2215749 Z M18.9371944,15.6396326 L18.9371944,10.6826578 L10.6101565,16.2335937 L14.3298323,18.7218888 L18.9371944,15.6396326 Z M29.3899365,16.2335852 L21.062814,10.6826494 L21.062814,15.6396242 L25.6705144,18.7218804 L29.3899365,16.2335852 Z M10.6101312,23.7666769 L18.9371691,29.3176127 L18.9371691,24.3605534 L14.3298915,21.2790581 L10.6101312,23.7666769 Z M21.0627887,24.3605872 L21.0627887,29.3176466 L29.3899111,23.7667107 L25.670489,21.2790919 L21.0627887,24.3605872 Z M19.9998901,17.4858496 L16.2410679,20.0001015 L19.9998901,22.5144379 L23.758966,20.0001015 L19.9998901,17.4858496 Z M30.2407931,21.7786872 L30.2407931,18.2216003 L27.5821304,20.0001015 L30.2407931,21.7786872 Z" id="path-1"></path>
    </defs>
    <g id="Symbols" stroke="none" stroke-width="1" fill="none" fill-rule="evenodd">
        <g id="Icon/codepen">
            <circle id="Oval" fill="#FFFFFF" cx="20" cy="20" r="20"></circle>
            <mask id="mask-2" fill="white">
                <use xlink:href="#path-1"></use>
            </mask>
            <use id="Codepen" fill="#0A0B09" xlink:href="#path-1"></use>
            <g id="Color/Logo/Codepen" mask="url(#mask-2)" fill="#989898" opacity="0.983288043">
                <rect id="Rectangle" x="0" y="0" width="40" height="40"></rect>
            </g>
        </g>
    </g>
</svg>