<?xml version="1.0" encoding="UTF-8"?>
<svg width="40px" height="40px" viewBox="0 0 40 40" version="1.1" xmlns="http://www.w3.org/2000/svg" xmlns:xlink="http://www.w3.org/1999/xlink">
    <!-- Generator: Sketch 48.2 (47327) - http://www.bohemiancoding.com/sketch -->
    <title>Icon/email</title>
    <desc>Created with Sketch.</desc>
    <defs>
        <path d="M19.9998732,0 C8.95456515,0 0,8.95422695 0,20.0001268 C0,31.0461112 8.95456515,39.9999155 19.9998732,39.9999155 C31.0458576,39.9999155 40,31.0461112 40,20.0001268 C40,8.95422695 31.0458576,0 19.9998732,0 Z M31.520675,14.3506929 C32.034126,14.0894413 31.9995114,14.3913321 31.9995114,14.635167 C31.9995114,14.8673907 31.9995114,26.5366312 31.9995114,26.5366312 C31.9995114,27.0707457 31.3245251,27.75 30.759152,27.75 L20.0574468,27.75 L9.35574163,27.75 C8.79036852,27.75 8,27.0765513 8,26.5366312 C8,26.5366312 8,14.8731963 8,14.635167 C8,14.3971377 8.02884557,14.0894413 8.53652754,14.3506929 C9.00959483,14.5945278 13.3018151,17.6366582 16.1113733,19.4654198 L11.3749313,24.8355927 C11.259549,24.9517045 11.207627,25.0968443 11.2768564,25.1607058 C11.3460857,25.2303729 11.5018518,25.1955394 11.617234,25.0794275 L17.3055798,20.2491747 C18.1651777,20.8065116 18.7651654,21.1896807 18.8747786,21.2477366 C19.3190003,21.4741547 19.6305324,21.5031827 20.0574468,21.5031827 C20.4843612,21.5031827 20.7958933,21.4741547 21.240115,21.2477366 C21.3439591,21.1896807 21.949716,20.8065116 22.8093139,20.2491747 L28.4976596,25.0794275 C28.618811,25.1897338 28.7688079,25.2245673 28.8380373,25.1607058 C28.9014975,25.0910387 28.8495755,24.9517045 28.7341932,24.8355927 L23.9919821,19.4654198 C26.8015403,17.6366582 31.0476077,14.5945278 31.520675,14.3506929 Z M9.02419346,14.1921928 C8.78734711,14.0712457 8.38875203,13.8581485 8.30210093,13.6047355 C8.15190568,13.1727816 8.31365441,13 8.95487258,13 L20,13 L31.0451274,13 C31.6863456,13 31.8480943,13.1670222 31.6978991,13.6047355 C31.611248,13.8523891 31.2126529,14.0712457 30.9758065,14.1921928 C30.3403651,14.5262372 21.513506,19.3238055 21.1842318,19.496587 C20.8549576,19.6693686 20.5199066,19.75 20,19.75 C19.4800934,19.75 19.1450424,19.6693686 18.8157682,19.496587 C18.486494,19.3238055 9.65963489,14.5262372 9.02419346,14.1921928 Z" id="path-1"></path>
    </defs>
    <g id="Symbols" stroke="none" stroke-width="1" fill="none" fill-rule="evenodd">
        <g id="Icon/email">
            <mask id="mask-2" fill="white">
                <use xlink:href="#path-1"></use>
            </mask>
            <use id="Combined-Shape" fill="#161514" xlink:href="#path-1"></use>
            <g id="Color/Logo/GitHub" mask="url(#mask-2)" fill="#989898" opacity="0.983288043">
                <rect id="Rectangle" x="0" y="0" width="40" height="40"></rect>
            </g>
        </g>
    </g>
</svg>