<?xml version="1.0" encoding="UTF-8"?>
<svg width="40px" height="40px" viewBox="0 0 40 40" version="1.1" xmlns="http://www.w3.org/2000/svg" xmlns:xlink="http://www.w3.org/1999/xlink">
    <!-- Generator: Sketch 48.2 (47327) - http://www.bohemiancoding.com/sketch -->
    <title>Icon/github</title>
    <desc>Created with Sketch.</desc>
    <defs>
        <path d="M28.1300678,38.2784454 C25.646034,39.3849201 22.894793,39.9999155 19.9998732,39.9999155 C22.7985649,39.9999155 25.4629709,39.4251259 27.8814762,38.3871505 C27.376123,38.60383 26.8600529,38.8003435 26.3342579,38.9756158 C25.320472,39.1720141 24.9604637,38.5483751 24.9604637,38.0161457 C24.9604637,37.3574001 24.9836473,35.2036431 24.9836473,32.5275926 C24.9836473,30.6616436 24.3444421,29.4445042 23.6270751,28.823846 C28.0806458,28.3287104 32.7594287,26.6373008 32.7594287,18.9555786 C32.7594287,16.7720141 31.9834403,14.98787 30.7010557,13.587249 C30.9087146,13.0835024 31.5936245,11.0493066 30.5049886,8.29443179 C30.5049886,8.29443179 28.8278203,7.75690333 25.010474,10.3445249 C23.41213,9.90138688 21.6998551,9.67915545 20.0001656,9.67153798 C18.3004761,9.67915545 16.589526,9.90138688 14.9941627,10.3445249 C11.1721797,7.75690333 9.49269302,8.29443179 9.49269302,8.29443179 C8.40670669,11.0493066 9.09128545,13.0835024 9.29894432,13.587249 C8.01954047,14.98787 7.23825295,16.7720141 7.23825295,18.9555786 C7.23825295,26.6190851 11.9080936,28.3340095 16.3504036,28.8397433 C15.778431,29.3391844 15.2601118,30.2214862 15.0806044,31.5141379 C13.9393086,32.0251708 11.0443386,32.9091285 9.26052577,29.8515421 C9.26052577,29.8515421 8.20302215,27.9316084 6.19465949,27.7905196 C6.19465949,27.7905196 4.24326226,27.7650176 6.05787622,29.0063341 C6.05787622,29.0063341 7.36874353,29.6210308 8.27853446,31.9327675 C8.27853446,31.9327675 9.45261851,35.5023805 15.0166839,34.2925274 C15.025295,35.9637342 15.0438419,37.5392258 15.0438419,38.0161457 C15.0438419,38.5444007 14.6768785,39.163403 13.6773339,38.9782654 C9.01191538,37.4256536 5.1103045,34.2005645 2.68370692,30.0138018 C0.976996163,27.0690863 6.92148158e-06,23.6487595 3.67762929e-11,20.0001656 C0,8.95417098 8.95582695,0 20.0001656,0 C31.0454978,0 40,8.95417098 40,20.0001656 C40,28.1527421 35.1251133,35.1645257 28.1300679,38.2784453 Z" id="path-1"></path>
    </defs>
    <g id="Symbols" stroke="none" stroke-width="1" fill="none" fill-rule="evenodd">
        <g id="Icon/github">
            <circle id="Oval" fill="#FFFFFF" cx="20" cy="20" r="20"></circle>
            <mask id="mask-2" fill="white">
                <use xlink:href="#path-1"></use>
            </mask>
            <use id="Fill-5" fill="#161514" xlink:href="#path-1"></use>
            <g id="Color/Logo/GitHub" mask="url(#mask-2)" fill="#989898" opacity="0.983288043">
                <rect id="Rectangle" x="0" y="0" width="40" height="40"></rect>
            </g>
        </g>
    </g>
</svg>