<?xml version="1.0" encoding="UTF-8"?>
<svg width="40px" height="40px" viewBox="0 0 40 40" version="1.1" xmlns="http://www.w3.org/2000/svg" xmlns:xlink="http://www.w3.org/1999/xlink">
    <!-- Generator: Sketch 48.2 (47327) - http://www.bohemiancoding.com/sketch -->
    <title>Icon/linkedin</title>
    <desc>Created with Sketch.</desc>
    <defs>
        <path d="M19.9998732,0 C31.0458576,0 40,8.95422695 40,20.0001268 C40,31.0461112 31.0458576,39.9999155 19.9998732,39.9999155 C8.95456515,39.9999155 0,31.0461112 0,20.0001268 C0,8.95422695 8.95456515,0 19.9998732,0 Z M11,28 L14.8671875,28 L14.8671875,15.9765625 L11,15.9765625 L11,28 Z M13.0390625,14.1484375 L13.0671875,14.1484375 C14.3539062,14.1484375 15.1554688,13.2273438 15.1554688,12.0742188 C15.1273438,10.8929687 14.3539062,10 13.0882812,10 C11.8226562,10 11,10.9 11,12.0742188 C11,13.2273438 11.8015625,14.1484375 13.0390625,14.1484375 Z M25.1328125,28 L29,28 L29,20.9757813 C29,17.36875 27.0804688,15.6953125 24.5421875,15.6953125 C22.4960938,15.6953125 21.6171875,16.8484375 21.0546875,17.65 L21.0546875,15.9765625 L17.1875,15.9765625 L17.1875,28 L21.0546875,28 L21.0546875,21.1515625 C21.0546875,20.8 21.0828125,20.4554688 21.1882813,20.2023438 C21.4695313,19.4992188 22.1023438,18.775 23.1710938,18.775 C24.5703125,18.775 25.1328125,19.8507813 25.1328125,21.4257812 L25.1328125,28 Z" id="path-1"></path>
    </defs>
    <g id="Symbols" stroke="none" stroke-width="1" fill="none" fill-rule="evenodd">
        <g id="Icon/linkedin">
            <circle id="Oval" fill="#FFFFFF" cx="20" cy="20" r="20"></circle>
            <mask id="mask-2" fill="white">
                <use xlink:href="#path-1"></use>
            </mask>
            <use id="Combined-Shape" fill="#125688" xlink:href="#path-1"></use>
            <g id="Color/Logo/GitHub" mask="url(#mask-2)" fill="#989898" opacity="0.983288043">
                <rect id="Rectangle" x="0" y="0" width="40" height="40"></rect>
            </g>
        </g>
    </g>
</svg>