<?xml version="1.0" encoding="UTF-8"?>
<svg width="40px" height="40px" viewBox="0 0 40 40" version="1.1" xmlns="http://www.w3.org/2000/svg" xmlns:xlink="http://www.w3.org/1999/xlink">
    <!-- Generator: Sketch 48.2 (47327) - http://www.bohemiancoding.com/sketch -->
    <title>Icon/twitter</title>
    <desc>Created with Sketch.</desc>
    <defs>
        <path d="M19.9998732,0 C31.0458576,0 40,8.95422695 40,20.0001268 C40,31.0461112 31.0458576,39.9999155 19.9998732,39.9999155 C8.95456515,39.9999155 0,31.0461112 0,20.0001268 C0,8.95422695 8.95456515,0 19.9998732,0 Z M31.1203125,14.1328125 C30.3046875,14.49375 29.4328125,14.7375 28.5140625,14.85 C29.4515625,14.2875 30.1734375,13.396875 30.5109375,12.3375 C29.634375,12.8578125 28.6640625,13.2375 27.628125,13.4390625 C26.7984375,12.553125 25.6171875,12 24.3140625,12 C21.80625,12 19.7765625,14.034375 19.7765625,16.5421875 C19.7765625,16.8984375 19.8140625,17.2453125 19.89375,17.578125 C16.1203125,17.390625 12.7734375,15.58125 10.5375,12.8296875 C10.1484375,13.5 9.9234375,14.2828125 9.9234375,15.1125 C9.9234375,16.6875 10.7296875,18.0796875 11.9484375,18.8953125 C11.1984375,18.8765625 10.4953125,18.6703125 9.8859375,18.328125 L9.8859375,18.384375 C9.8859375,20.5875 11.4515625,22.4203125 13.528125,22.8375 C13.1484375,22.940625 12.7453125,22.996875 12.3328125,22.996875 C12.0421875,22.996875 11.75625,22.96875 11.4796875,22.9125 C12.05625,24.7171875 13.734375,26.0296875 15.721875,26.0671875 C14.1703125,27.2859375 12.2109375,28.0125 10.0828125,28.0125 C9.7171875,28.0125 9.35625,27.9890625 9,27.946875 C11.0015625,29.25 13.3875,30 15.946875,30 C24.3046875,30 28.8703125,23.0765625 28.8703125,17.071875 C28.8703125,16.875 28.865625,16.678125 28.85625,16.4859375 C29.7421875,15.84375 30.5109375,15.046875 31.1203125,14.1328125 Z" id="path-1"></path>
    </defs>
    <g id="Symbols" stroke="none" stroke-width="1" fill="none" fill-rule="evenodd">
        <g id="Icon/twitter">
            <circle id="Oval" fill="#FFFFFF" cx="20" cy="20" r="20"></circle>
            <mask id="mask-2" fill="white">
                <use xlink:href="#path-1"></use>
            </mask>
            <use id="Combined-Shape" fill="#4099FF" xlink:href="#path-1"></use>
            <g id="Color/Logo/GitHub" mask="url(#mask-2)" fill="#989898" opacity="0.983288043">
                <rect id="Rectangle" x="0" y="0" width="40" height="40"></rect>
            </g>
        </g>
    </g>
</svg>